<?xml version="1.0" standalone="yes"?>
<svg xmlns="http://www.w3.org/2000/svg" width="1024" height="1536">
<path fill="currentColor" stroke="none" d="M627 175C618.844 191.374 600.361 204.257 585 213.396C565.222 225.163 543.108 233.328 520 234.911C473.861 238.071 428.04 216.66 399 181C401.31 179.723 404.764 175.239 399.851 174.503C396.876 174.058 393.645 176.07 391 177.136C386.794 178.83 382.349 179.752 378 181C357.283 186.945 334.738 192.689 317 205.428C290.707 224.311 280.649 258.208 266.753 286C261.282 296.943 256.212 308.054 250.753 319C248.778 322.96 244.58 329.316 245.788 333.96C246.555 336.909 249.555 338.685 252.001 340.123C257.455 343.331 263.342 345.924 269 348.753C281.926 355.216 294.835 361.857 307 369.692C316.195 375.614 324.745 382.456 334 388.304C340.666 392.516 351.098 396.398 356 388C358.27 393.377 358.572 399.261 359.421 405C360.866 414.757 362.482 424.422 364.873 434C371.273 459.63 378.616 485.085 383.8 511C386.342 523.704 389.872 538.016 387.535 551C385.901 560.079 381.422 567.933 377.258 576C371.288 587.568 365.341 599.229 359.781 611C344.329 643.713 331.436 677.692 320 712C284.413 818.761 255.223 927.411 225.849 1036C214.073 1079.53 203.065 1123.25 192.127 1167C189.205 1178.69 186.282 1190.37 183.151 1202C181.722 1207.31 178.997 1214.49 180.438 1220C182.187 1226.69 190.375 1231.87 196 1235.12C212.311 1244.55 232.61 1247.54 251 1250.13C256.379 1250.89 261.71 1251.89 267 1253.12C269.366 1253.67 272.596 1253.91 274.393 1255.74C276.578 1257.96 275.303 1261.27 275.495 1264C275.706 1267.01 276.801 1270.15 277.748 1273C281.025 1282.84 289.193 1290.09 298 1295.13C321.631 1308.65 349.492 1309.12 376 1307.96C386.921 1307.48 398.038 1305.99 409 1307.29C442.659 1311.27 473.064 1328.59 507 1330.91C540.111 1333.18 571.259 1321.47 604 1320.04C629.702 1318.91 655.854 1324.48 681 1316C688.995 1313.3 696.525 1309.7 700.676 1302C704.207 1295.45 703.247 1286.22 711.005 1282.85C716.764 1280.36 723.856 1279.82 730 1278.75C739.696 1277.06 749.355 1275.16 759 1273.2C778.413 1269.25 798.76 1261.29 816 1251.58C822.703 1247.8 829.589 1244.27 835.999 1240C838.761 1238.16 842.016 1236.23 843.243 1232.96C845.315 1227.44 841.308 1219.29 839.72 1214C835.224 1199.02 830.219 1184.18 826.374 1169C811.22 1109.17 798.157 1048.9 783.374 989C758.01 886.221 735.873 782.928 700.308 683C690.549 655.58 681.231 626.827 667.68 601C660.961 588.194 653.387 575.843 646.742 563C643.7 557.122 639.908 551.757 639.174 545C637.338 528.114 644.504 510.061 648.849 494C658.637 457.815 673.029 420.588 676 383C684.495 390.184 693.708 385.195 702 379.947C721.632 367.521 740.042 354.476 761 344.245C767.522 341.061 774.353 338.852 780.999 335.985C783.754 334.796 787.054 333.359 787.356 329.957C787.777 325.227 784.003 319.189 782.139 315C777.411 304.375 772.885 293.68 768.281 283C757.963 259.068 749.555 229.63 731.826 210.004C717.345 193.974 695.717 188.572 676 182C662.568 177.523 648.989 171.935 635 169.464C632.324 168.991 628.733 168.473 626.153 169.603C622.305 171.286 624.14 174.04 627 175M633 175C652.116 183.473 672.582 189.034 692 196.8C700.892 200.357 710.231 203.752 717.996 209.489C730.081 218.417 735.627 233.675 741.424 247C748.857 264.085 756.649 281.017 764.306 298C768.709 307.767 775.119 318.417 777 329C755.327 334.916 734.517 347.25 716 359.671C709.609 363.957 703.587 368.807 697 372.796C693.777 374.747 690.07 377.228 686.104 376.809C682.97 376.478 680.724 373.375 678 372C678.033 359.946 680.633 347.972 681.831 336C684.073 313.592 686.144 290.86 691.884 269C695.869 253.824 702.479 239.219 706 224C699.176 226.134 697.221 235.948 694.8 242C687.7 259.754 683.12 278.242 679.611 297C672.2 336.621 669.577 376.839 659.265 416C652.417 442.009 645.15 467.905 638.627 494C634.826 509.203 630.01 525.249 630 541C577.071 551.265 524.797 555.316 471 552.961C456.009 552.304 440.793 549.894 426 547.414C417.885 546.053 408.731 543.28 401 547C421.897 555.05 445.809 557.561 468 559.089C497.813 561.142 528.215 562.229 558 558.714C575.687 556.628 593.391 554.976 611 552.08C615.802 551.291 627.17 547.304 631.49 550.067C634.229 551.819 635.363 557.156 636.579 560C639.783 567.493 643.603 574.713 647.247 582C662.629 612.765 675.387 643.807 687.424 676C713.78 746.488 732.369 819.039 750.374 892C765.709 954.141 780.548 1016.52 794.424 1079C802.81 1116.76 811.563 1154.96 822.72 1192C825.64 1201.69 829.235 1211.21 831.845 1221C832.731 1224.33 834.679 1229.51 832.933 1232.79C831.422 1235.63 827.635 1237.23 825 1238.8C818.541 1242.66 811.748 1245.93 805 1249.24C785.48 1258.84 764.242 1264.58 743 1268.8C730.517 1271.28 715.623 1271.91 704.015 1277.35C695.644 1281.28 696.766 1289.83 693.004 1296.99C689.919 1302.85 683.964 1305.44 678 1307.56C654.792 1315.83 629.794 1310 606 1311.04C572.238 1312.52 540.133 1324.25 506 1321.91C474.46 1319.75 446.212 1303.17 415 1299.28C382.849 1295.28 346.696 1306.26 316 1293.13C305.465 1288.62 293.397 1282.81 286.853 1273C281.466 1264.92 281.908 1255.5 272.985 1249.71C264.134 1243.97 253.139 1242.44 243 1240.4C232.785 1238.34 222.761 1235.6 213 1231.95C205.779 1229.25 196.144 1225.74 191.742 1218.96C188.138 1213.41 190.635 1205.77 192.291 1200C196.396 1185.69 200.227 1171.32 204.29 1157C220.665 1099.3 233.723 1040.66 250.291 983C278.941 883.297 304.879 782.815 339.692 685C349.966 656.133 361.697 627.699 374.781 600C379.658 589.674 384.612 579.413 389.306 569C392.116 562.765 395.961 555.858 396.815 549C399.646 526.269 391.866 503.687 386.374 482C379.163 453.52 373.011 424.87 367.611 396C361.272 362.107 358.271 327.679 350.65 294C345.448 271.008 337.96 248.972 321 232C340.537 267.232 348.9 304.157 353.166 344C353.879 350.662 354.552 357.32 355.086 364C355.295 366.624 356.117 369.396 355.397 372C354.308 375.942 350.267 381.849 345.985 382.589C342.493 383.192 338.793 381.063 336 379.239C329.763 375.167 323.998 370.298 318 365.884C298.376 351.444 276.436 340.34 254 331C259.206 317.581 266.322 304.863 272.753 292C279.93 277.647 286.695 262.98 294.576 249C300.856 237.858 306.196 224.886 316.015 216.301C330.894 203.291 352.431 196.851 371 191.28C378.66 188.982 386.244 185.838 394 184C404.809 199.891 418.581 213.801 435 223.935C484.449 254.456 549.689 248.321 596 215.14C611.627 203.944 624.439 192.247 633 175M486 591C482.04 621.665 477.203 652.31 473.285 683C456.862 811.674 444.161 940.95 431.83 1070C427.851 1111.64 424.77 1153.29 421.91 1195C420.127 1221.02 417 1246.87 417 1273C420.13 1269.4 420.289 1264.63 420.845 1260C421.843 1251.68 422.319 1243.29 423.424 1235C428.47 1197.15 429.8 1158.9 434.285 1121C437.983 1089.77 440.14 1058.31 443.17 1027C447.657 980.63 453.325 934.367 457.83 888C462.486 840.08 465.852 791.723 472.425 744C477.322 708.446 479.66 672.584 484.282 637C485.531 627.382 486.204 617.655 487.169 608C487.753 602.162 488.88 596.417 486 591M417 598C401.732 637.578 393.868 679.855 384.116 721C369.712 781.773 355.852 842.755 343.6 904C329.3 975.486 316.228 1047.18 303.75 1119C299.989 1140.64 296.51 1162.33 292.92 1184C290.894 1196.23 287.977 1208.64 287 1221C290.384 1217.16 291.198 1211.93 292.199 1207C293.824 1199.01 295.424 1191 296.999 1183C303.216 1151.4 308.68 1119.65 314.611 1088C336.151 973.043 358.677 857.992 384.881 744C392.848 709.344 399.744 674.517 408.373 640L415.373 612C416.457 607.644 418.552 602.33 417 598M590 602C590 622.138 594.801 642.13 597.728 662C603.592 701.808 610.434 741.404 617.576 781C634.343 873.965 648.961 967.542 662.728 1061C669.362 1106.03 676.27 1151.1 683.753 1196L689.92 1233C691.003 1239.54 691.495 1247.26 695 1253C696.432 1248.15 695.45 1243.93 695.089 1239C694.352 1228.94 692.899 1218.98 691.421 1209C686.886 1178.36 681.847 1147.76 678.155 1117C672.097 1066.54 663.679 1016.28 656.272 966C645.684 894.126 634.65 822.256 620.4 751C613.22 715.097 607.57 678.902 600.4 643C598.674 634.359 597.143 625.671 595.576 617C594.611 611.665 593.863 605.997 590 602z"/>
</svg>
