<?xml version="1.0" standalone="yes"?>
<svg xmlns="http://www.w3.org/2000/svg" width="1024" height="1536">
<path fill="currentColor" stroke="none" d="M401 442.425C381.434 445.089 361.502 452.868 348.184 468C341.326 475.793 337.533 485.562 333.576 495C324.489 516.671 318.974 539.532 312.279 562C302.308 595.464 290.631 628.204 281.735 662C278.06 675.959 274.627 689.994 271.127 704C269.81 709.268 269.747 717.408 266.272 721.722C262.753 726.092 254.153 727.029 249 728.371C237.137 731.461 225.406 735.725 214 740.203C168.376 758.115 111.175 784.21 95.0285 835C91.7671 845.259 89.3021 857.191 90.0903 868C91.176 882.89 98.9574 896.732 108.25 908C129.402 933.648 164.432 947.777 195 958.947C246.974 977.939 303.107 986.33 358 990.089C399.396 992.924 441.406 994.782 483 992.961C507.355 991.894 531.745 988.517 556 986.17C565.677 985.233 575.336 985.152 585 983.728C686.102 968.835 786.752 941.771 874 887.05C898.812 871.488 929.5 846.935 936.761 817C938.611 809.373 938.077 801.701 937.155 794C936.43 787.941 935.644 781.618 933.096 776C928.047 764.871 916.87 756.324 907 749.671C883.941 734.128 855.736 722.664 829 715.155C818.195 712.12 807.031 710.418 796 708.424C792.084 707.717 786.354 707.588 784.028 703.772C781.614 699.814 782.197 692.546 781.576 688C779.8 674.985 778.068 661.972 775.92 649C769.921 612.783 764.315 576.177 753.72 541C748.695 524.316 744.252 507.477 734.099 493C716.28 467.592 685.422 465 657 465C639.799 465 623.026 465.783 606 468.424C595.751 470.015 584.273 476.421 574 475.787C562.121 475.054 549.528 469.759 538 466.873C509.082 459.635 480.3 452.03 451 446.54C434.566 443.461 417.819 440.136 401 442.425M553 481C542.765 486.394 530.878 488.821 520 492.692C492.565 502.456 464.736 511.491 437 520.344C424.403 524.365 404.619 532.519 392.043 524.911C383.399 519.68 385.097 505.683 384 497C376.807 498.123 375.699 505.532 376.34 512C377.451 523.213 383.47 534.059 395 536.956C406.687 539.893 419.686 536.88 431 533.745C452.466 527.798 473.159 518.707 494 510.808C545.004 491.475 600.138 475 655 475C675.074 475 702.118 475.928 717.985 490.185C726.937 498.229 732.369 511.022 736.799 522C747.49 548.492 752.88 576.946 757.586 605C761.113 626.02 765.229 646.893 768.271 668C769.258 674.85 773.091 686.776 769.257 692.999C764.129 701.321 753.203 707.516 745 712.396C720.579 726.924 692.237 733.075 665 739.873C638.244 746.552 611.493 752.17 584 754.83C560.722 757.083 537.345 757.017 514 758.039C470.145 759.96 425.224 758.394 382 749.8C368.72 747.16 355.908 743.037 343 739.026C323.139 732.853 299.844 725.801 287.171 708C280.344 698.412 285.759 687.46 288 677C293.939 649.28 304.632 623.13 312.576 596C320.912 567.532 328.579 538.819 338.95 511C344.156 497.036 349.322 481.82 360.09 471.09C373.693 457.534 393.463 453 412 453C444.057 453 476.13 461.521 507 469.42C517.556 472.121 528.419 473.73 539 476.375C543.6 477.525 549.102 478.291 553 481M772 704C777.464 718.591 776.631 736.623 778.169 752C778.783 758.139 781.006 765.198 778.161 771C772.852 781.825 762.103 788.716 752 794.424C729.404 807.19 703.861 815.896 679 823C633.863 835.898 588.559 842.739 542 847.17C512.169 850.009 481.936 851.14 452 849.089C423.31 847.125 393.946 845.677 366 838.151C339.307 830.963 312.585 823.481 290 806.846C283.196 801.834 273.838 795.836 270.024 788C267.763 783.354 269.967 776.975 269.999 772C270.117 753.623 274.928 734.806 279 717C285.788 720.161 291.422 726.14 298 729.988C312.607 738.535 328.868 745.839 345 750.971C394.735 766.795 447.333 769.618 499 769.004C561.936 768.255 625.371 762.91 686 744.72C709.556 737.653 734.866 729.332 756 716.55C761.906 712.978 766.418 707.931 772 704M265 735C263.968 748.062 260.83 760.877 259.91 774C259.548 779.168 257.8 784.991 259.938 790C264.344 800.327 275.923 809.591 285 815.645C307.702 830.787 333.714 840.785 360 847.629C402.693 858.745 447.236 861.087 491 860.015C552.151 858.517 612.886 850.003 672 833.576C701.713 825.318 731.124 815.655 758 800.28C770.162 793.323 785.111 782.137 789.351 768C790.814 763.124 789.431 757.921 789 753C788.021 741.818 787.045 730.015 785 719C797.694 716.083 813.815 722.687 826 726.14C852.258 733.583 878.449 741.381 901 757.202C914.559 766.715 925.997 778.901 927.826 796C931.067 826.285 908.089 847.726 887 865.701C856.863 891.386 819.338 907.548 783 922.201C732.524 942.554 678.647 957.433 625 966.75C588.523 973.085 551.776 976.33 515 979.83C480.766 983.088 446.376 983.24 412 982.455C361.986 981.314 312.055 976.789 263 966.014C222.4 957.096 180.772 945.543 145 923.572C135.155 917.525 125.016 910.448 117.09 901.996C97.4119 881.012 96.1714 848.896 109.799 824C112.615 818.857 116.826 814.459 120.59 810C148.389 777.071 190.451 755.95 231 743.565C242.155 740.158 253.387 736.564 265 735z"/>
</svg>
