<?xml version="1.0" standalone="yes"?>
<svg xmlns="http://www.w3.org/2000/svg" width="1024" height="1536">
<path fill="currentColor" stroke="none" d="M309 397C273.224 408.661 234.218 423.942 208.09 452.001C195.237 465.803 187.428 484.077 179.626 501C164.81 533.137 153.283 566.397 142.33 600C134.239 624.823 128.3 649.808 121.714 675C99.3119 760.685 85.6309 847.974 76.8295 936C72.8316 975.984 69.7495 1015.92 66.9113 1056C65.9526 1069.54 63.8477 1083.44 64.0039 1097C64.1112 1106.33 66.3711 1115.18 69.1944 1124C70.5406 1128.21 72.945 1132.54 73.1929 1137C73.3969 1140.67 72.2001 1144.33 72.0394 1148C71.454 1161.35 70 1174.63 70 1188C70 1193.98 68.8169 1201.48 71.6883 1206.96C75.4226 1214.09 84.7823 1216.97 92 1219.09C109.409 1224.2 127.976 1225.56 146 1225.88C153.371 1226.02 163.166 1225.89 168.956 1220.78C175.737 1214.78 176.287 1206.32 177.285 1198C179.013 1183.61 179.241 1166.71 184.144 1153C185.895 1148.11 190.396 1145.1 193.366 1141C197.851 1134.81 200.844 1127.3 202.961 1120C209.417 1097.72 210.195 1072.92 213.282 1050C217.252 1020.53 223.06 991.337 227.92 962C231.19 942.259 235.406 922.652 239.197 903C240.767 894.86 241.382 883.431 247 877C244.802 884.435 246 893.278 246 901L245.971 947C245.956 993.831 241.224 1042.3 247.289 1089C248.529 1098.54 250.969 1108.1 254.605 1117C256.378 1121.34 259.795 1125.4 260.722 1130C262.053 1136.6 260.968 1144.28 261.001 1151C261.047 1160.58 261.919 1170.47 262.83 1180C263.509 1187.11 262.978 1195.14 268.39 1200.73C274.599 1207.13 286.682 1208.97 295 1210.88C314.709 1215.42 334.952 1216.92 355 1218.83C360.327 1219.34 365.685 1218.67 371 1219.43C404.173 1224.18 438.549 1222.2 472 1223.01C532.657 1224.5 593.481 1223.23 654 1219.09C678.992 1217.38 705.636 1217.63 730 1210.99C738.398 1208.7 748.386 1207.32 754.775 1200.79C760.984 1194.44 760.809 1183.26 761.015 1175C761.383 1160.21 759.9 1142.41 763.418 1128C764.457 1123.75 767.407 1120.01 769.127 1116C771.828 1109.71 773.432 1102.74 774.565 1096C779.221 1068.3 778 1039.99 778 1012C778 966.539 777 921.494 777 876C783.508 893.348 784.632 912.967 788.665 931C801.543 988.579 809.4 1047.49 817.282 1106C818.756 1116.94 821.388 1128.65 827.44 1138C830.815 1143.22 837.36 1147.11 839.291 1153.04C843.83 1166.98 844.012 1183.5 846 1198C847.034 1205.55 847.385 1214.13 853.188 1219.79C858.576 1225.03 865.134 1224.52 872 1225.42C891.446 1227.98 912.097 1224.08 931 1219.65C938.614 1217.87 947.704 1215.1 951.991 1208C956.232 1200.97 953.905 1189.73 953.17 1182C952.664 1176.69 953.275 1171.32 952.911 1166C952.249 1156.34 950.672 1146.7 950.61 1137C950.58 1132.37 953.226 1128.32 954.564 1124C956.977 1116.21 958.752 1108.16 959.195 1100C959.881 1087.37 957.95 1074.56 957.089 1062C956.017 1046.34 955.162 1030.66 954.089 1015C943.24 856.573 919.398 695.294 862.808 546C848.962 509.473 834.096 467.631 804 441.184C788.82 427.846 769.419 418.834 751 411C739.89 406.275 727.122 399.065 715 398C715.758 388.395 716.4 380.877 711.677 372C708.588 366.196 702.477 361.099 700.299 355C698.265 349.305 699.695 341.164 698.54 335C695.473 318.63 687.539 305.159 675 294.185C668.302 288.323 659.191 284.506 651 281.201C633.008 273.94 614.193 270.219 595 267.718C577.13 265.391 558.998 262.828 541 262.039C513.209 260.822 485.624 263.018 458 264.911C428.851 266.907 400.485 269.318 373 280.453C355.337 287.609 336.359 302.491 329.901 321C326.232 331.518 326.772 343.939 322.49 354C320.601 358.438 316.681 361.953 314.09 366C307.762 375.887 306.09 385.751 309 397M588 444C587.537 437.096 581.152 427.313 573.015 429.668C567.782 431.182 564.256 436.905 563.329 442C562.767 445.092 563.73 449.582 560.566 451.486C557.114 453.564 551.846 452.999 548 453C542.704 453.002 537.276 453.334 532 452.83C527.016 452.354 522.004 450.791 517 451C522.309 439.71 539.689 431.585 550 425.192C576.633 408.678 603.262 392.321 629 374.435C641.873 365.489 663.508 350.95 662.942 333C662.693 325.1 656.237 318.259 650 314.105C636.213 304.922 617.304 300.592 601 299.075C586.632 297.738 572.419 295.077 558 294.089C530.89 292.233 504.096 292.055 477 293.911C456.85 295.291 436.916 296.017 417 300C402.227 302.954 384.247 305.214 372.001 314.681C366.934 318.597 361.621 324.284 361.12 331C359.676 350.353 380.62 362.013 394 371.579C419.375 389.719 446.595 405.094 472 423.29C482.125 430.542 497.615 439.453 503 451C489.859 451.271 476.112 451.046 463 452C463 445.484 463.528 438.269 458.772 433.108C449.77 423.339 438.595 432.406 437 443C415.813 438.615 395.013 430.46 375 422.449C361.048 416.864 347.071 411.055 334 403.573C328.953 400.683 322.981 397.448 320.318 391.999C316.153 383.476 323.085 368.868 331 365C332.885 367.019 340.043 372.197 340.292 365.887C340.439 362.147 337.134 358.537 336.194 355C334.874 350.028 336.163 343.928 337.211 339C339.23 329.501 342.769 319.849 348.61 312C365.788 288.914 399.726 283.714 426 278.804C437.474 276.66 449.415 276.934 461 275.83C498.413 272.267 536.644 273.093 574 276.831C601.245 279.557 629.199 283.05 654 295.436C673.258 305.054 687.438 321.724 687.985 344C688.096 348.495 688.562 353.586 687.61 358C687.013 360.765 684.457 363.949 684.994 366.836C685.831 371.336 691.88 366.757 694.6 368.658C701.217 373.283 704.786 383.237 703.815 391C702.474 401.715 686.623 407.919 678 412.241C649.238 426.657 618.789 435.344 588 444M584 391C590.224 380.075 597.882 369.631 604.653 359C606.229 356.525 610.993 349.402 606.556 347.176C603.481 345.634 600.898 350.021 599.499 352.005C594.685 358.832 590.671 366.179 585.856 373C577.61 384.681 568.782 397.327 558 406.816C548.772 414.937 537.06 420.926 527 428.036C520.824 432.4 515.696 438.526 509 442C498.452 428.44 482.736 418.228 469 408.155C463.932 404.439 457.636 401.491 453.379 396.816C444.209 386.744 438.268 371.126 432.248 359C430.714 355.912 428.029 346.09 423.133 347.461C418.903 348.646 420.792 354.302 421.865 357C425.487 366.105 431.293 374.604 434 384C416.351 374.607 396.902 363.232 382.015 349.816C376.568 344.907 369.902 336.885 372.894 329.001C375.257 322.775 382.305 320.104 388 317.801C401.286 312.427 414.854 309.863 429 307.87C466.349 302.606 505.388 301.334 543 303.911C564.21 305.363 585.113 305.786 606 310.424C617.155 312.902 628.487 315.662 639 320.229C644.042 322.42 649.68 325.565 651.732 331.004C654.846 339.255 646.399 347.881 640.999 352.91C630.545 362.645 617.938 370.863 606 378.656C599.196 383.097 591.769 388.541 584 391M438 455C438 485.636 437.264 516.374 438.015 547C438.211 555.006 439.789 562.994 439.985 571C440.426 588.996 437.789 608.204 440.59 626C441.371 630.961 443.522 635.962 443.402 641C443.235 648.003 443 654.982 443 662C443 665.193 442.532 668.949 443.742 671.981C445.544 676.494 451.461 678.217 455.995 677.397C461.039 676.483 462.732 671.502 462.96 667C463.417 657.985 460.634 648.831 461.299 640C461.636 635.528 463.865 631.599 463.985 627C465.416 572.321 463 517.646 463 463C472.362 463.006 481.593 464.599 491 463.91C498.04 463.394 504.846 460.686 512 461.093C528.803 462.05 545.053 466.146 562 463C563.424 467.955 562.025 472.896 562.001 478C561.949 488.72 562.275 499.341 562.015 510C561.397 535.28 561.715 560.761 561.975 586C562.118 599.995 560.077 615.112 562.325 629C563.029 633.348 564.615 637.548 564.741 642C564.986 650.679 562.493 659.197 563.044 668C563.425 674.092 567.658 678.476 574 677.796C585.425 676.57 583 663.223 583 655C583 649.758 582.477 644.187 583.325 639C583.989 634.936 585.606 631.144 585.91 627C586.926 613.152 585.999 598.876 586 585C586.002 553.298 588 521.721 588 490L588 465C588.001 462.031 587.391 457.936 589.603 455.564C593.691 451.183 605.357 450.777 611 449.024C628.299 443.649 645.299 437.432 662 430.424C673.71 425.511 684.877 419.815 696 413.688C700.252 411.346 704.795 406.722 710 407.664C719.717 409.424 729.862 415.115 739 418.799C766.151 429.748 794.199 443.046 812.335 467.004C831.941 492.903 843.157 526.866 854.424 557C902.06 684.399 925.351 821.183 938.831 956C942.664 994.328 944.474 1032.63 947.089 1071C948.052 1085.13 949.499 1100.06 946.349 1114C945.479 1117.85 945.056 1122.5 942.911 1125.9C938.944 1132.17 928.755 1134.56 922 1136.11C907.284 1139.5 891.046 1139.06 876 1140.09C866.991 1140.71 856.924 1142.87 847.999 1140.62C833.871 1137.06 830.683 1117.11 829 1105C823.894 1068.25 818.385 1031.65 812.725 995C807.364 960.29 800.71 925.209 792.765 891C786.887 865.692 779.456 839.813 776.286 814C773.657 792.59 775.904 770.533 774.961 749C773.635 718.714 773.64 688.315 773.996 658C774.215 639.429 773.051 621.618 774.83 603C777.987 569.959 784.042 538.369 795 507C797.641 499.44 802.643 492.62 804.876 485.001C805.602 482.521 805.219 477.506 801.281 479.176C798.412 480.392 796.155 484.5 794.547 487C789.291 495.172 785.141 504.824 782.003 514C774.132 537.018 769.684 560.906 766.715 585C765.043 598.574 763 612.311 763 626C763 753.11 767 879.93 767 1007C767 1035.28 769.442 1065.12 763.999 1093C762.319 1101.61 760.032 1115.53 752.671 1121.27C748.798 1124.29 742.683 1124.59 738 1125.16C727.679 1126.39 717.419 1127.94 707 1128C709.509 1118.81 713.64 1110.05 716.645 1101C721.118 1087.53 724.715 1073.8 727.887 1060C730.672 1047.89 734.069 1033.44 731.521 1021C729.036 1008.87 717.828 997.499 711.603 987C699.989 967.411 690.899 947.106 682.449 926C675.748 909.261 669.921 892.136 664.33 875C662.066 868.06 660.088 857.129 653.895 852.568C650.931 850.385 647.456 850.804 644 850.501C636.017 849.8 628.014 850 620 850L531 850L418 850C406.184 850 393.722 848.885 382 850.424C378.509 850.883 374.215 850.51 371.04 852.179C363.735 856.02 362.369 865.968 359.996 873C354.009 890.744 347.851 908.49 341.192 926C333.194 947.034 324.148 967.672 312.551 987C305.479 998.787 293.567 1010.03 291.259 1024C289.948 1031.94 292.503 1040.22 293.704 1048C298.011 1075.9 309.634 1101.02 317 1128C306.092 1125.97 294.958 1125.13 284 1123.41C279.801 1122.75 273.735 1122.83 270.213 1120.26C267.554 1118.31 266.141 1114.89 264.782 1112C260.647 1103.21 258.788 1093.57 257.831 1084C254.668 1052.37 255.164 1019.7 256.792 988C259.009 944.866 256.49 901.222 257.004 858C257.853 786.605 260 715.552 260 644C260 618.044 257.24 592.511 252.46 567C249.225 549.737 246.393 532.608 240.414 516C236.922 506.301 233.347 496.85 227.938 488C226.405 485.492 224.242 480.589 220.954 480.06C216.325 479.316 217.586 485.628 218.468 488C221.853 497.093 226.221 505.756 229.333 515C242.838 555.122 249 597.749 249 640C249 672.673 248 705.415 248 738C248 754.382 247.414 770.684 247.015 787C246.821 794.913 248.005 803.162 247.32 811C244.884 838.894 235.445 866.74 229.424 894C221.808 928.484 216.341 963.313 209.804 998C204.319 1027.11 200.636 1056.71 196.428 1086C194.385 1100.22 194.541 1116.1 187.32 1129C183.671 1135.52 178.605 1140.31 171 1141.5C163.14 1142.73 154.833 1140.64 147 1140.09C127.679 1138.74 101.894 1140.9 85.0432 1129.73C78.9539 1125.69 77.8516 1117.75 76.8704 1111C74.528 1094.89 76.2705 1079.21 76.9606 1063C79.8319 995.548 86.6818 927.862 96.5787 861C106.007 797.304 118.464 734.484 134.105 672C146.075 624.183 159.796 576.438 179.15 531C189.395 506.946 198.483 480.813 216.174 461C233.347 441.766 255.735 430.75 279 420.719C289.688 416.111 302.402 409.165 314 407.573C318.662 406.932 322.25 410.318 326 412.547C332.97 416.69 340.57 420.334 348 423.576C376.608 436.057 407.335 448.654 438 455M454 632C449.083 630.384 449.06 625.653 449.004 621C448.884 610.959 448 601.055 448 591C448 559.22 447.414 527.673 446.039 496C445.763 489.625 446.698 483.388 446.449 477C446.085 467.669 445.955 458.338 446.001 449C446.015 446.042 445.542 440.942 448.495 439.086C453.159 436.154 453.853 445.563 453.961 448C454.49 459.953 454 472.035 454 484C454 516.348 454.222 548.665 455.015 581C455.427 597.818 457.961 615.363 454 632M572 632C568.818 614.921 570 597.309 570 580C570 548.636 571 517.372 571 486C571 473.671 570.832 461.328 571.004 449C571.044 446.091 572.55 437.087 577.404 441.623C579.721 443.788 579.944 449.049 579.871 452C579.65 460.995 578.985 469.948 579 479C579.017 489.559 579.991 500.188 579.832 510.714C579.432 537.229 578 563.495 578 590L578 621C577.997 626.494 578.304 630.995 572 632M454 643C454.132 649.413 458.81 665.408 451 668L451 643L454 643M575 643L575 668L571 668C571 659.554 572.827 651.395 573 643L575 643M328 1130C327.007 1120.29 321.41 1110.16 318.053 1101C313.286 1088 309.882 1074.42 306.526 1061C303.615 1049.35 300.566 1036.11 302.133 1024C302.93 1017.85 308.19 1012.06 311.495 1007C318.304 996.57 325.142 986.142 330.752 975C340.712 955.221 348.676 934.72 356.424 914C362.889 896.713 369.833 879.01 374 861L569 861C587.322 861.007 605.641 860 624 860C630.812 860 641.307 858.489 647.581 861.603C652.185 863.888 653.817 875.45 655.333 880C660.917 896.75 666.7 913.582 673.204 930C681.349 950.56 690.331 970.946 701.603 990C705.409 996.432 709.37 1002.78 713.515 1009C716.708 1013.79 720.416 1018.2 721.532 1024C722.631 1029.72 721.544 1035.31 721.086 1041C719.748 1057.62 714.588 1074.24 709.333 1090C706.077 1099.77 702.908 1109.47 698.989 1119C697.851 1121.77 696.865 1127.12 694.412 1128.97C692.479 1130.44 689.28 1130.01 687 1130.29C680.358 1131.08 673.668 1131.45 667 1132.07C642.513 1134.35 617.593 1136 593 1136C551.381 1136 509.733 1139.79 468 1137.96C438.354 1136.66 408.599 1135.94 379 1133.91C362.145 1132.76 344.872 1130.14 328 1130M396 877C388.457 875.613 387.303 880.798 385.576 887C383.723 893.655 382.092 900.492 379.782 907C367.668 941.132 357.244 975.707 336.656 1006C330.91 1014.45 323.89 1021.91 317.666 1030C315.826 1032.39 312.319 1036.35 313.658 1039.68C315.832 1045.09 323.174 1036.82 324.83 1035C333.179 1025.82 340.474 1015.5 347.05 1005C360.756 983.115 370.069 959.23 378.692 935C385.417 916.104 391.938 896.677 396 877M634 876C628.229 877.752 628.6 882.884 630.039 888C632.871 898.065 636.257 907.95 639.141 918C648.894 951.976 663.292 987.501 684.371 1016C689.23 1022.57 694.19 1028.85 699.576 1035C701.63 1037.34 704.348 1041.13 707.851 1041.13C713.14 1041.13 708.996 1033.86 707.645 1032C701.141 1023.04 693.14 1015.24 687.004 1006C675.015 987.947 666.675 968.066 658.797 948C649.543 924.431 640.916 900.37 634 876M751 1135C751 1149.32 751.186 1163.76 749.83 1178C749.385 1182.67 749.753 1189.98 745.721 1193.16C738.111 1199.15 724.798 1200.25 715.576 1201.86C689.878 1206.35 663.961 1207.31 638 1209.09C595.035 1212.03 552.141 1211.81 509 1212C465.322 1212.19 421.527 1212.09 378 1209.09C354.085 1207.44 329.435 1206.67 306 1201.24C297.323 1199.22 286.524 1198.29 279.059 1193.03C273.828 1189.34 274.401 1182.7 273.831 1177C272.41 1162.79 272 1148.3 272 1134C290.336 1134.15 308.746 1139.09 327 1140.83C350.805 1143.1 375.114 1143.91 399 1144.96C458.562 1147.57 518.385 1147.48 578 1146.01C635.808 1144.6 693.586 1142.26 751 1135M939 1141C942.468 1155.08 942.977 1171.53 943 1186C943.007 1190.44 944.732 1197.81 942.643 1201.79C939.967 1206.88 930.102 1208.43 925 1209.57C910.218 1212.89 894.148 1215 879 1215C873.349 1215 865.794 1215.36 861.225 1211.43C855.824 1206.78 855.426 1196.6 854.975 1190C854.138 1177.74 852.252 1165.09 850 1153C857.067 1150.91 864.718 1152.52 872 1151.83C894.781 1149.66 917.452 1149.36 939 1141M173 1152C170.363 1166.2 170.018 1180.8 167.463 1195C166.47 1200.52 167.086 1207.4 162.656 1211.58C158.04 1215.94 150.815 1215 145 1215C129.859 1215 114.739 1212.61 100 1209.12C94.8531 1207.89 85.1494 1206.71 82.179 1201.78C79.7138 1197.68 80.9926 1190.59 81 1186C81.0233 1171.51 82.1827 1156.38 84 1142C92.4319 1142.74 100.542 1146.59 109 1147.87C129.819 1151.01 151.947 1152 173 1152z"/>
</svg>
