<?xml version="1.0" standalone="yes"?>
<svg xmlns="http://www.w3.org/2000/svg" width="1024" height="1536">
<path fill="currentColor" stroke="none" d="M508 615C511.536 625.443 512.738 637.125 514.424 648C516.5 661.381 518.861 674.525 520.17 688C522.927 716.384 527.422 744.603 530.17 773C538.734 861.5 552.405 949.529 560.83 1038C564.586 1077.44 570.889 1116.61 574.831 1156C575.935 1167.03 577.522 1177.99 578.845 1189C579.607 1195.34 580.264 1202.77 584.419 1207.96C592.886 1218.52 610.27 1215.05 622 1216.17C636.682 1217.57 651.324 1216.09 666 1215.09C690.297 1213.43 713.914 1211.02 738 1206.92C747.971 1205.22 758.266 1203.33 768 1200.57C773.541 1199 778.605 1196.71 780.852 1191C782.989 1185.57 782 1178.72 782 1173C781.999 1158.7 780.665 1144.28 780.039 1130C777.966 1082.65 776.327 1035.28 773.089 988C769.649 937.756 768.164 887.315 765.961 837C762.732 763.275 758.305 689.443 751.17 616C747.706 580.347 745.562 544.641 741.286 509C735.206 458.33 728.503 407.882 717.424 358C714.683 345.658 711.953 333.263 708.873 321C707.52 315.61 706.444 309.264 701.892 305.569C694.491 299.561 682.545 303.41 674 304.576C653.519 307.372 631.665 308.991 611 309C547.447 309.028 483.577 313.265 420 308.911C397.691 307.383 375.267 304.952 353 302.83C342.661 301.845 331.364 297.989 321.001 300.33C315.521 301.568 312.886 306.022 311.09 311C307.749 320.263 306.485 330.369 304.69 340C296.941 381.571 289.614 423.162 283.421 465C276.915 508.958 273.031 552.858 268.83 597C265.564 631.32 261.445 665.597 259.09 700C257.517 722.963 257.483 746.04 255.91 769C250.527 847.615 245.413 926.269 241.961 1005C240.995 1027.03 238.004 1048.98 237.039 1071C235.93 1096.32 236.243 1121.75 233.83 1147C232.843 1157.33 231.879 1167.6 232.004 1178C232.097 1185.81 234.297 1193.48 242.001 1196.89C255.938 1203.06 272.138 1205.27 287 1208.09C318.203 1214.02 351.34 1217.1 383 1216.26C394.133 1215.96 404.808 1216.7 416 1215.13C421.295 1214.39 427.731 1213.56 431.786 1209.72C435.575 1206.13 436.444 1200.91 437.246 1196C438.761 1186.74 439.173 1177.3 440.424 1168C445.658 1129.09 449.329 1090.04 453.17 1051C459.085 990.875 467.587 931.017 474.715 871C479.811 828.087 482.944 784.926 488.285 742C493.578 699.454 502.513 657.484 508 615M693 315C696.616 327.743 701.229 340.852 703 354C685.998 359.531 668.631 361.679 651 364.13C609.078 369.958 567.271 370 525 370C472.462 370 420.151 370.814 368 362.438C350.552 359.636 332.918 357.374 316 352C318.489 338.643 323.036 325.348 325 312C344.756 315.831 365.026 315.261 385 317.17C410.946 319.649 436.976 321.821 463 322.961C490.22 324.153 517.751 323 545 323C578.577 323 611.578 321.432 645 319.089C660.784 317.983 677.549 318.722 693 315M386 378C379.91 396.722 374.386 415.067 363.935 432C349.296 455.717 323.278 473.785 295 475C301.879 438.486 304.664 401.086 314 365C337.008 370.542 362.294 376.982 386 378M724 475C688.516 466.791 664.29 444.45 648.745 412C643.854 401.789 638.664 390.268 637 379C653.49 378.66 670.261 373.653 686.576 371.307C691.412 370.612 699.905 366.799 704.57 368.693C706.902 369.64 707.339 372.865 707.869 375.001C709.341 380.94 709.997 387.056 711.475 393C715.436 408.921 717.932 424.771 720.271 441C721.892 452.252 723.992 463.612 724 475M400 379C407.105 381.159 414.643 380.978 422 381.482C436.703 382.488 451.244 383 466 383C476.706 383 487.398 384.968 498 383L498 495C498 503.76 496.92 512.923 500.975 520.999C502.416 523.871 505.084 528.155 508.942 527.248C512.753 526.353 512.921 522.106 512.571 519C511.617 510.524 511.014 501.53 511 493C510.941 456.278 511.696 419.693 512 383C537.92 383 564.107 384.095 590 382.961C596.544 382.674 603.499 382.481 610 381.714C613.419 381.311 618.298 379.97 621.57 381.603C623.903 382.768 624.247 385.76 624.909 388.001C626.516 393.443 628.689 398.738 630.8 404C637.664 421.108 646.785 438.239 659.171 452C670.122 464.168 682.772 474.675 698 480.988C704.49 483.679 711.34 485.439 718 487.667C720.539 488.516 724.067 489.148 725.682 491.51C727.267 493.827 727.055 497.323 727.424 500C728.478 507.65 729.344 515.325 730.166 523C733.162 550.988 735.507 579.017 738.17 607C748.239 712.799 750.663 819.042 758.089 925C761.284 970.572 762.04 1016.35 764.039 1062C764.96 1083.02 767 1103.91 767 1125C767 1140.1 767.062 1155.91 768.089 1171C768.415 1175.78 770.477 1184.21 764.852 1186.74C760.341 1188.77 754.806 1189.36 750 1190.42C740.327 1192.57 730.819 1194.86 721 1196.27C692.832 1200.33 664.445 1202.99 636 1203C625.913 1203 616.008 1203.13 606 1201.71C602.742 1201.25 597.365 1201 595.009 1198.41C592.675 1195.85 592.619 1191.25 592.08 1188C590.811 1180.34 589.66 1172.72 588.834 1165C585.688 1135.62 581.367 1106.34 577.845 1077C564.618 966.818 555.867 855.895 540.286 746C534.237 703.337 528.738 660.632 522.427 618C520.983 608.243 519.528 598.606 517.195 589C516.175 584.797 514.069 579.868 508.996 579.623C504.01 579.382 501.875 584.051 500.589 588C498.115 595.595 496.275 603.064 495.131 611C489.939 647.02 484.117 683.067 478.246 719C474.726 740.542 472.897 762.31 470.83 784C468.191 811.7 464.61 839.313 461.831 867C454.863 936.417 445.109 1005.59 438.169 1075C435.066 1106.04 432.267 1137.14 427.41 1168C426.257 1175.33 425.284 1182.68 424.08 1190C423.641 1192.67 423.683 1197.13 421.4 1198.99C419.14 1200.83 414.767 1200.8 412 1201.25C403.447 1202.63 394.654 1203 386 1203C352.42 1203 316.924 1201.45 284 1194.12C274.578 1192.02 265.279 1189.52 256 1186.86C252.811 1185.94 248.108 1185.16 246.603 1181.78C245.032 1178.24 246 1172.79 246 1169C246 1158.94 246.736 1149 246.985 1139C247.401 1122.3 249.231 1105.67 249.961 1089C250.836 1069.02 250.723 1048.95 252.09 1029C260.758 902.408 264.802 775.392 276.83 649C280.38 611.704 283.216 574.329 286.83 537C287.867 526.298 289.399 515.682 290.715 505C291.253 500.638 290.943 495.271 292.89 491.228C294.625 487.626 298.628 488.165 302 487.911C306.333 487.585 310.795 486.604 315 485.522C329.963 481.669 344.004 473.014 355.576 462.996C371.016 449.628 382.336 430.053 389.305 411C392.93 401.088 394.634 387.9 400 379z"/>
</svg>
