<?xml version="1.0" standalone="yes"?>
<svg xmlns="http://www.w3.org/2000/svg" width="1024" height="1536">
<path fill="currentColor" stroke="none" d="M176 469.464C161.532 472.073 156.175 482.513 154.831 496C152.561 518.781 164.783 538.277 168.905 560C170.784 569.9 170.653 580.031 171.845 590C173.194 601.278 169.487 609.449 166.001 620C163.393 627.893 161.321 635.979 159.151 644C151.708 671.515 148.033 700.62 146.09 729C143.362 768.823 146.018 808.387 150.17 848C152.161 867.002 158.533 885.932 156.907 905C155.814 917.82 148.84 928.822 143.247 940C135.462 955.56 128.066 972.038 124 989C121.318 1000.19 117.691 1014.36 126.214 1023.96C137.168 1036.3 155.169 1035.18 170 1034.09C200.364 1031.86 229.179 1018.85 259 1013.2C267.797 1011.53 278.006 1007.13 287 1008.3C294.826 1009.33 302.342 1012.53 310 1014.35C328.188 1018.65 346.539 1022.6 365 1025.56C423.498 1034.96 482.762 1038.44 542 1036.99C575.648 1036.16 609.743 1033.14 643 1027.56C657.047 1025.21 671.007 1022.37 685 1019.74C690.193 1018.76 695.693 1016.6 701 1016.6C706.266 1016.6 711.922 1018.86 717 1020.13C728.164 1022.92 739.07 1025.69 750 1029.33C771.348 1036.44 793.677 1042.37 816 1045.28C829.883 1047.09 844.259 1048.41 858 1044.71C875.756 1039.94 881.858 1022.76 877.87 1006C872.992 985.511 861.987 968.449 854.576 949C851.811 941.743 848.109 934.879 847.503 927C846.994 920.375 849.109 913.454 850.4 907C852.733 895.335 855.311 883.714 857.385 872C863.113 839.65 866.669 806.737 868.911 774C871.61 734.579 871.573 693.326 867.83 654C866.817 643.355 866.14 632.603 864.711 622C863.649 614.11 861.079 605.989 861.079 598C861.078 585.035 867.875 573.4 873.22 562C879.885 547.784 886.035 533.337 889.499 518C892.04 506.754 894.176 492.118 884.895 483.188C873.689 472.406 851.618 476.894 838 479.789C817.998 484.042 798.632 490.067 779 495.709C768.025 498.863 756.384 503.625 745 504.826C739.768 505.379 734.213 504.352 729 503.831C688.526 499.784 648.484 492.22 608 488.169C557.924 483.159 507.35 481.571 457 481.571C415.225 481.571 373.488 486.657 332 491.166C319.138 492.564 305.901 496.114 293 496.541C281.756 496.913 268.543 492.181 258 488.667C240.134 482.711 222.455 476.2 204 472.21C194.868 470.236 185.395 467.771 176 469.464M731 1008C739.706 1002.52 750.77 1002.16 759.981 998.005C763.818 996.276 766.272 992.1 762.58 988.718C759.816 986.185 755.383 986.783 751.996 987.297C742.795 988.693 733.888 992.328 725 994.964C691.752 1004.82 656.5 1013.07 622 1016.95C553.65 1024.63 484.47 1025.46 416 1018.83C386.71 1015.99 357.858 1010.33 329 1004.92C304.988 1000.42 279.462 992.997 257 983.421C251.412 981.039 245.783 978.579 240 976.701C237.413 975.86 234.518 975.158 232.362 977.358C228.874 980.916 233.095 985.202 236.015 987.363C242.885 992.445 251.957 995.378 260 998C251.821 1002.93 240.13 1002.41 231 1004.76C209.588 1010.27 188.559 1020.73 166 1021C156.779 1021.11 141.654 1022.94 135.742 1013.96C130.569 1006.1 136.204 991.871 139.054 984C142.721 973.875 146.433 963.635 151.247 954C158.007 940.472 166.14 926.998 169.193 912C172.328 896.602 168.897 882.235 166.25 867C163.604 851.768 161.634 836.389 160.17 821C155.105 767.777 156.573 711.131 169.374 659C176.805 628.738 187.017 599.515 205.64 574C210.04 567.972 215.011 562.282 219.056 556C220.727 553.405 221.996 550.099 219.332 547.608C215.453 543.981 210.597 549.456 208 552.005C199.86 559.995 193.737 570.888 185 578C183.168 563.505 179.854 550 175.565 536C172.892 527.276 168.947 519.225 168.075 510C167.372 502.565 164.994 491.326 171.394 485.514C174.276 482.898 178.358 483.013 182 483.001C190.121 482.974 198.154 484.622 206 486.63C222.478 490.847 238.861 495.973 255 501.333C267.173 505.376 281.009 510.509 294 509.961C309.959 509.287 326.154 506.256 342 504.285C371.509 500.613 401.319 497.339 431 496.039C459.184 494.805 487.887 495.729 516 496.961C537.285 497.893 558.784 497.151 580 499.17C622.503 503.215 664.633 509.759 707 514.845C719.876 516.391 734.027 519.273 747 518.215C758.738 517.258 770.802 512.454 782 509.025C798.538 503.96 815.183 499.214 832 495.13C842.271 492.635 853.421 490.448 864 490.04C868.411 489.87 873.42 490.346 876.258 494.214C881.601 501.496 876.974 517.438 874.188 525C869.283 538.316 863.594 551.109 857.691 564C853.551 573.041 848.499 582.872 848.039 593C847.399 607.103 851.944 620.977 852.911 635C855.525 672.933 858.631 710.852 856.961 749C855.395 784.757 852.499 820.615 846.565 856C844.27 869.686 841.867 883.381 839.196 897C837.83 903.963 835.656 910.906 835.086 918C832.809 946.326 851.034 968.724 860.575 994C863.995 1003.06 870.291 1018.37 862.721 1026.89C854.504 1036.15 837.854 1033.88 827 1033.09C794.709 1030.72 761.089 1019.61 731 1008z"/>
</svg>
