<?xml version="1.0" standalone="yes"?>
<svg xmlns="http://www.w3.org/2000/svg" viewBox="0 0 1024 1536">
<path fill="currentColor" stroke="none" d="M247 687C250.767 699.74 249 714.825 249 728C249 753.033 249.132 778.039 248.039 803C247.238 821.312 247.789 839.707 246.897 858C244.065 916.013 241.058 974.05 237.09 1032C236.634 1038.65 237.366 1045.35 236.91 1052C235.336 1075 233.362 1098.05 231.17 1121C230.378 1129.29 230.688 1137.75 229.715 1146C228.628 1155.21 227.996 1164.72 228 1174C228.001 1177.85 227.517 1182.45 229.858 1185.79C235.312 1193.55 250.397 1196.32 259 1198.47C284.51 1204.85 309.966 1208.95 336 1212.42C373.728 1217.45 412.012 1219.38 450 1221.04C486.48 1222.64 523.426 1224.5 560 1222.96C583.255 1221.98 606.815 1221.04 630 1218.83C642.271 1217.66 654.688 1215.64 667 1215.04C680.657 1214.37 694.504 1211.7 708 1209.44C726.138 1206.39 744.128 1203.6 762 1199.35C770.153 1197.4 778.58 1194.25 786 1190.36C788.725 1188.93 792.08 1187.58 793.682 1184.79C795.758 1181.17 795 1176 795 1172C795 1162.93 795.028 1154.02 794.17 1145C793.255 1135.39 793.746 1125.62 792.83 1116C790.775 1094.4 787.988 1072.67 787.039 1051C783.653 973.665 779.426 896.351 776.039 819C774.713 788.717 775 758.34 775 728C775 714.574 776.421 700.31 775 687C782.257 696.509 789.655 707.324 795.056 717.999C797.682 723.19 803.156 732.847 809.09 734.566C814.008 735.989 818.751 733.364 823 731.247C830.804 727.358 838.427 723.17 846 718.85C875.208 702.187 903.582 684.71 932 666.772C941.143 661 958.39 652.062 959.359 640C959.916 633.059 954.681 625.764 951.424 620C944.94 608.521 938.449 596.75 932.514 585C912.194 544.774 890.221 504.619 867 466C857.523 450.239 848.877 432.524 837.614 418C829.374 407.374 820.215 396.508 809 388.901C792.364 377.618 771.522 371.166 753 363.691C732.067 355.244 711.087 346.604 690 338.576C678.985 334.382 667.855 330.305 657 325.716C649.963 322.741 640.753 317.994 633 318.084C628.672 318.134 624.941 320.528 621 322.036C614.165 324.65 607.103 326.781 600 328.526C577.237 334.117 553.443 337.936 530 338.961C525.284 339.167 520.662 338.135 516 338.259C487.221 339.027 459.316 336.557 431 330.714C420.15 328.476 409.583 324.766 399 321.561C394.277 320.131 390.116 317.511 385 318.333C376.967 319.622 368.54 324.184 361 327.2C346.991 332.803 332.875 338.218 319 344.128C292.783 355.295 265.907 364.797 240 376.691C226.557 382.863 212.596 389.271 202.09 400.039C189.696 412.741 181.643 428.247 172.136 443C151.666 474.764 133.649 507.795 115.691 541C104.705 561.314 94.0194 581.956 82.5787 602C78.0751 609.89 73.8151 617.875 69.7531 626C67.8804 629.746 65.243 633.793 64.6227 638C63.4559 645.913 71.4972 651.91 77 656.101C91.4826 667.131 106.535 677.225 122 686.808C143.676 700.239 165.653 713.422 188 725.694C195.052 729.567 206.4 737.779 214.91 734.397C219.67 732.505 222.614 726.01 225.344 722C232.863 710.955 241.641 699.264 247 687M384 333C387.531 341.481 390.907 350.94 395.259 359C407.389 381.463 427.254 402.01 450 413.741C513.954 446.727 597.083 421.082 627.231 355C630.481 347.875 634.188 340.646 636 333C640.745 333.698 649.25 334.846 651.968 339.34C655.734 345.566 649.931 358.173 647.421 364C637.591 386.812 623.308 404.266 603.831 419.525C588.86 431.255 570.266 438.308 552 442.873C535.825 446.916 516.68 449.842 500 448.787C488.385 448.052 476.075 444.43 465 441.025C440.674 433.545 418.782 422.12 400.718 403.845C384.154 387.085 367.068 362.599 367 338C372.731 336.674 378.395 334.792 384 333M622 335C622.559 339.763 619.772 347.018 615.775 350.005C612.519 352.439 607.789 353.573 604 354.946C594.626 358.341 584.745 361.227 575 363.338C531.236 372.816 483.298 371.298 440 360.474C425.926 356.955 399.765 353.589 398 336C404.796 336.677 411.327 339.518 418 340.986C435.374 344.809 453.271 348.136 471 349.83C486.204 351.283 501.717 351 517 351C530.567 351 544.535 351.368 558 349.714C579.843 347.031 600.905 340.987 622 335M355 344C358.963 351.551 360.795 360.199 364.312 368C372.03 385.12 381.961 400.119 395.515 413.235C448.494 464.506 542.329 474.78 603 430.116C620.962 416.892 636.859 400.664 647.688 381C652.13 372.935 655.926 364.609 659.186 356C660.385 352.834 660.849 347.172 663.703 345.028C666.179 343.167 670.357 344.23 673 345.104C680.472 347.574 687.685 351.274 695 354.2C720.574 364.43 745.741 375.467 771 386.424C777.354 389.181 783.68 392.028 790 394.861C792.625 396.038 796.21 397.325 797.382 400.213C799.004 404.21 796.299 410.042 795.424 414C792.946 425.219 789.961 436.428 787.865 447.714C784.505 465.812 780.083 483.812 777.275 502C773.581 525.926 771.46 549.936 769.17 574C766.701 599.936 766.1 625.985 764.961 652C764.042 672.974 762.529 694.01 762.015 715C761.622 731.05 762.637 747.027 762.946 763C763.935 814.074 765.417 864.984 768.911 916C770.55 939.943 769.449 964.038 771.089 988C772.915 1014.66 774.264 1041.34 776.089 1068C777.026 1081.67 778.841 1095.28 779.004 1109C779.119 1118.68 780.996 1128.3 781 1138C781.001 1141.2 781.781 1145.78 779.972 1148.61C778.327 1151.19 774.725 1152.33 772 1153.3C765.215 1155.73 758.045 1156.99 751 1158.4C721.892 1164.22 690.682 1168.6 661 1170.04C650.328 1170.56 639.66 1172.18 629 1172.91C621.027 1173.46 612.982 1172.69 605 1173.04C584.354 1173.94 563.669 1175.48 543 1175.99C515.023 1176.67 486.899 1175.26 459 1174.04C421.679 1172.41 384.201 1171.71 347 1168.17C321.472 1165.74 296.213 1162.14 271 1157C264.995 1155.77 258.996 1154.47 253 1153.2C250.102 1152.58 246.622 1151.98 244.603 1149.58C241.307 1145.66 243.397 1138.55 243.83 1134C245.022 1121.48 245.614 1108.58 246.021 1096.01C246.573 1078.95 249.215 1062.03 249.961 1045C251.582 1007.97 252.375 971.02 254.91 934C256.825 906.038 256.813 878.002 258.039 850C260.213 800.359 263.206 750.832 261.985 701C261.487 680.666 258.929 660.324 258.039 640C256.165 597.196 255.283 554.474 248.725 512C242.841 473.885 232.942 436.189 223 399C235.935 393.453 248.198 386.186 261 380.309C282.121 370.612 304.155 362.236 326 354.305C335.558 350.835 345.091 346.348 355 344M412 363C429.518 371.156 450.997 373.659 470 376.159C517.322 382.385 565.54 377.787 611 363C605.846 374.566 594.846 384.932 585 392.575C550.199 419.589 499.825 424.397 460 406.229C445.298 399.522 431.886 390.202 421.159 377.996C417.873 374.257 411.568 368.2 412 363M807 406C812.665 407.603 815.773 412.624 819.414 417C827.194 426.353 833.774 436.669 840.192 447C865.405 487.583 888.028 529.724 910.255 572C916.61 584.086 923.623 595.74 929.753 608C931.651 611.796 936.299 618.157 934.381 622.61C933.116 625.548 928.631 627.267 926 628.691C918.715 632.634 911.399 636.522 904 640.248C878.325 653.176 853.39 668.492 829 683.684C821.153 688.572 805.494 703.557 797.184 694.941C793.305 690.919 790.651 685.689 787.681 681C783.703 674.721 778.758 668.396 777.123 661C774.297 648.211 776.67 634.865 776.985 622C777.785 589.362 780.021 556.295 785.246 524C788.793 502.076 791.669 479.931 795.324 458C798.24 440.503 803.049 423.277 807 406M214 408C218.095 413.628 218.968 421.312 220.664 428C223.864 440.615 226.889 453.223 229.449 466C238.282 510.084 243.842 555.195 246.91 600C247.692 611.41 246.753 622.678 247.83 634C248.667 642.797 248.947 653.48 246.38 662C243.918 670.173 238.491 677.861 233.946 685C230.986 689.649 226.16 698.863 220 699.469C214.339 700.026 207.389 693.925 203 691C190.087 682.395 177.448 673.046 164 665.284C145.905 654.841 128.556 643.438 110 633.778C105.027 631.189 99.9261 628.843 95.0008 626.163C93.0495 625.101 90.1696 623.938 89.2407 621.737C87.5544 617.74 92.9814 611.275 94.8495 608C101.943 595.566 108.372 582.73 114.92 570C134.577 531.782 156.294 494.844 178.4 458C185.293 446.511 192.161 434.868 200.012 424C204.163 418.252 208.176 412.137 214 408M215 709C214.331 712.71 212.739 715.677 211 719C198.979 717.198 186.587 709.186 176 703.46C152.36 690.673 129.249 676.398 107 661.329C99.1364 656.004 91.0103 650.155 84.0201 643.714C81.4946 641.386 77.5606 636.809 81.5185 633.708C84.1795 631.624 88.3792 634.328 91 635.316C99.8102 638.634 107.699 642.905 116 647.262C124.346 651.642 131.817 657.377 140 661.996C156.488 671.302 172.991 680.085 189.001 690.143C198.023 695.812 205.702 703.651 215 709M807 709C823.677 698.791 840.058 687.896 857 678.15C868.772 671.377 880.145 663.949 892 657.329C904.638 650.273 916.693 641.564 930 635.785C934.29 633.922 944.925 630.017 944.042 638.986C943.716 642.292 940.477 644.517 937.961 646.188C932.348 649.915 926.572 653.406 921 657.194C896.886 673.592 871.975 689.933 846 703.258C838.06 707.331 830.217 711.492 822 714.999C819.26 716.169 815.409 718.53 812.339 717.353C809.204 716.151 807.975 711.85 807 709M782 1161C782 1165.67 783.292 1172.72 780.258 1176.66C778.276 1179.23 774.852 1180.23 772 1181.48C765.47 1184.35 759.018 1187.16 752 1188.6C729.406 1193.23 706.729 1195.89 684 1199.44C622.856 1208.99 559.712 1210.53 498 1209.01C492.626 1208.88 487.329 1209.66 482 1209.66C472.684 1209.66 463.295 1208.45 454 1208.04C421.261 1206.61 388.566 1205.28 356 1201.28C339.888 1199.31 324.04 1196.59 308 1194.3C295.027 1192.45 281.624 1191.35 269 1187.5C262.533 1185.53 256.25 1183.77 250 1181.14C246.681 1179.74 243.211 1178.57 241.742 1174.96C240.108 1170.94 241.48 1166.11 242 1162C253.442 1162.52 263.921 1167.62 275 1169.74C299.439 1174.42 324.25 1177.47 349 1179.83C401.169 1184.82 453.589 1186.38 506 1187C517.996 1187.15 529.929 1188.28 542 1187.99C549.021 1187.81 555.979 1186.19 563 1186.01C636.805 1184.21 710.406 1180.14 782 1161z"/>
</svg>
